<?xml version="1.0" standalone="no"?>
<!DOCTYPE svg PUBLIC "-//W3C//DTD SVG 20010904//EN"
 "http://www.w3.org/TR/2001/REC-SVG-20010904/DTD/svg10.dtd">
<svg version="1.0" xmlns="http://www.w3.org/2000/svg"
 width="300.000000pt" height="253.000000pt" viewBox="0 0 300.000000 253.000000"
 preserveAspectRatio="xMidYMid meet">
<metadata>
Created by potrace 1.10, written by Peter Selinger 2001-2011
</metadata>
<g transform="translate(0.000000,253.000000) scale(0.050000,-0.050000)"
fill="#000000" stroke="none">
<path d="M60 5000 c-109 -109 -172 -38 1450 -1660 l1490 -1490 1491 1490
c1525 1525 1543 1545 1475 1637 -107 144 -24 214 -1564 -1325 l-1392 -1392
-1390 1390 c-1513 1512 -1451 1459 -1560 1350z"/>
<path d="M74 3160 c-131 -103 -199 -24 1441 -1665 l1495 -1495 1485 1485
c1570 1571 1554 1553 1472 1650 -108 127 -15 207 -1544 -1322 -766 -766 -1402
-1393 -1413 -1393 -11 0 -641 621 -1400 1379 -1440 1439 -1438 1437 -1536
1361z"/>
</g>
</svg>
